<svg width="124" height="123" viewBox="0 0 124 123" fill="none" xmlns="http://www.w3.org/2000/svg">
<g clip-path="url(#clip0_320_52)">
<path d="M42.1279 27.0842L39.4011 29.2787C46.1331 37.4757 51.4345 46.8882 55.0088 57.8374L56.1853 61.4396L58.1717 58.1732C64.0239 48.5606 66.9481 37.8725 66.655 26.1708L63.1551 26.2883C63.3992 36.036 61.3124 44.912 57.0504 53.083C53.4017 43.2771 48.3509 34.6615 42.1282 27.0843L42.1279 27.0842ZM12.9466 39.6385C19.5785 58.7634 35.3453 69.3087 54.5491 67.7741C47.8566 48.5673 32.3011 37.9322 12.9466 39.6385ZM81.5666 43.5492C71.3018 47.3955 62.9378 55.6578 57.7894 67.4828C76.9666 70.1189 93.6386 60.4217 101.809 41.5805C94.5659 40.5242 87.7251 41.2416 81.5665 43.5494L81.5666 43.5492ZM42.1982 73.2041C33.0243 76.7618 27.7715 85.0016 27.626 96.6729C44.2297 96.9572 54.5204 87.4201 54.6957 71.2512C49.9766 71.1336 45.7879 71.8124 42.1984 73.2042L42.1982 73.2041ZM57.8577 71.168C56.4208 87.4991 65.9839 97.5161 82.9708 97.8606C84.386 81.4579 75.037 71.3839 57.8575 71.1681L57.8577 71.168Z" fill="#EEB23A" stroke="#E1DDD0" stroke-width="6.324" stroke-linecap="round" stroke-linejoin="round"/>
<path d="M42.1279 27.0842L39.4011 29.2787C46.1331 37.4757 51.4345 46.8882 55.0088 57.8374L56.1853 61.4396L58.1717 58.1732C64.0239 48.5606 66.9481 37.8725 66.655 26.1708L63.1551 26.2883C63.3992 36.036 61.3124 44.912 57.0504 53.083C53.4017 43.2771 48.3509 34.6615 42.1282 27.0843L42.1279 27.0842ZM12.9466 39.6385C19.5785 58.7634 35.3453 69.3087 54.5491 67.7741C47.8566 48.5673 32.3011 37.9322 12.9466 39.6385ZM81.5666 43.5492C71.3018 47.3955 62.9378 55.6578 57.7894 67.4828C76.9666 70.1189 93.6386 60.4217 101.809 41.5805C94.5659 40.5242 87.7251 41.2416 81.5665 43.5494L81.5666 43.5492ZM42.1982 73.2041C33.0243 76.7618 27.7715 85.0016 27.626 96.6729C44.2297 96.9572 54.5204 87.4201 54.6957 71.2512C49.9766 71.1336 45.7879 71.8124 42.1984 73.2042L42.1982 73.2041ZM57.8577 71.168C56.4208 87.4991 65.9839 97.5161 82.9708 97.8606C84.386 81.4579 75.037 71.3839 57.8575 71.1681L57.8577 71.168Z" fill="#EEB23A" stroke="#EEB23A" stroke-width="1.581"/>
</g>
<defs>
<clipPath id="clip0_320_52">
<rect width="96.0444" height="94.5578" fill="white" transform="translate(0.172119 34.3289) rotate(-20.5704)"/>
</clipPath>
</defs>
</svg>
